<?xml version="1.0" standalone="no"?>
<!DOCTYPE svg PUBLIC "-//W3C//DTD SVG 20010904//EN"
 "http://www.w3.org/TR/2001/REC-SVG-20010904/DTD/svg10.dtd">
<svg version="1.0" xmlns="http://www.w3.org/2000/svg"
 width="277.000000pt" height="264.000000pt" viewBox="0 0 277.000000 264.000000"
 preserveAspectRatio="xMidYMid meet">

<g transform="translate(0.000000,264.000000) scale(0.100000,-0.100000)"
fill="#000000" stroke="none">
<path d="M1330 1911 c0 -5 -21 -12 -46 -16 -25 -3 -48 -13 -51 -21 -3 -8 -10
-14 -17 -14 -6 0 -20 -15 -31 -32 -10 -18 -21 -35 -24 -38 -18 -15 -31 -69
-31 -129 0 -68 15 -131 31 -131 4 0 15 -16 24 -35 11 -22 31 -41 56 -52 33
-15 39 -23 39 -50 0 -25 -10 -42 -40 -72 -22 -22 -40 -42 -40 -45 0 -3 18 -6
39 -6 38 0 66 16 109 63 9 9 29 17 44 17 34 0 68 32 68 64 0 17 7 27 23 32 27
8 67 50 67 69 0 8 4 16 9 20 6 3 13 26 17 50 3 25 10 45 15 45 5 0 9 16 9 35
0 19 -4 35 -10 35 -5 0 -10 8 -10 17 0 32 -33 105 -60 132 -30 30 -72 51 -100
51 -11 0 -20 5 -20 10 0 6 -16 10 -35 10 -19 0 -35 -4 -35 -9z m125 -45 c9 -9
22 -16 28 -16 28 0 65 -60 78 -125 20 -100 2 -174 -57 -231 -67 -67 -79 -61
-90 41 -6 55 -6 89 0 95 7 7 6 10 -3 10 -8 0 -12 12 -10 33 3 55 0 67 -23 76
-23 8 -68 -7 -68 -24 -9 -235 -15 -275 -40 -275 -24 0 -61 37 -85 85 -11 22
-24 43 -30 47 -14 10 -13 147 1 156 6 4 19 25 30 47 19 42 50 74 72 75 6 0 12
4 12 9 0 26 159 24 185 -3z m-91 -141 c3 -9 0 -15 -9 -15 -9 0 -12 6 -9 15 4
8 7 15 9 15 2 0 5 -7 9 -15z m10 -31 c20 -8 20 -21 2 -40 -23 -22 -36 -17 -36
16 0 31 6 35 34 24z m1 -70 c9 -4 13 -10 8 -13 -5 -3 -19 -19 -31 -35 l-22
-29 0 26 c0 50 12 63 45 51z m19 -71 c4 -10 -1 -23 -14 -35 -11 -10 -27 -30
-36 -43 -9 -14 -20 -25 -25 -25 -20 0 -7 43 21 73 16 18 30 35 30 40 0 14 18
7 24 -10z m11 -110 c-5 -12 -9 -14 -12 -5 -8 21 -23 13 -23 -12 0 -20 -6 -25
-35 -28 -19 -2 -35 -1 -35 3 0 3 21 28 47 54 44 46 47 47 56 27 5 -11 6 -29 2
-39z"/>
<path d="M1437 1344 c-16 -14 -38 -24 -56 -24 -27 0 -51 -21 -51 -44 0 -3 43
-6 95 -6 102 0 106 2 83 52 -21 43 -41 50 -71 22z"/>
<path d="M1070 975 c0 -97 4 -155 10 -155 6 0 10 30 10 70 l0 70 95 0 95 0 0
-70 c0 -56 3 -70 15 -70 13 0 15 24 15 155 0 131 -2 155 -15 155 -12 0 -15
-14 -15 -70 l0 -70 -95 0 -95 0 0 70 c0 40 -4 70 -10 70 -6 0 -10 -58 -10
-155z"/>
<path d="M1410 975 l0 -155 89 0 c90 0 139 11 153 33 4 7 8 28 8 47 0 25 -7
40 -27 57 l-28 23 23 19 c31 27 28 66 -7 102 -28 28 -33 29 -120 29 l-91 0 0
-155z m184 112 c11 -8 19 -26 19 -42 0 -41 -27 -55 -100 -55 l-63 0 0 55 0 55
63 0 c37 0 71 -6 81 -13z m6 -140 c34 -17 35 -68 3 -82 -13 -5 -23 -13 -23
-17 0 -5 -29 -8 -65 -8 l-65 0 0 60 0 60 63 0 c34 0 73 -6 87 -13z"/>
</g>
</svg>
